<mxfile host="app.diagrams.net" agent="Mozilla/5.0 (Windows NT 10.0; Win64; x64) AppleWebKit/537.36 (KHTML, like Gecko) Chrome/136.0.0.0 Safari/537.36" version="27.0.3">
  <diagram name="第 1 页" id="nF_NgQ6vDulWW_TsF_IM">
    <mxGraphModel dx="1042" dy="570" grid="1" gridSize="10" guides="1" tooltips="1" connect="1" arrows="1" fold="1" page="1" pageScale="1" pageWidth="827" pageHeight="1169" math="0" shadow="0">
      <root>
        <mxCell id="0" />
        <mxCell id="1" parent="0" />
        <mxCell id="ghfzgxNdztTbWZ-dMRiS-20" style="edgeStyle=elbowEdgeStyle;rounded=0;orthogonalLoop=1;jettySize=auto;html=1;exitX=0.5;exitY=1;exitDx=0;exitDy=0;entryX=0.5;entryY=0;entryDx=0;entryDy=0;endArrow=none;startFill=0;" edge="1" parent="1" source="ghfzgxNdztTbWZ-dMRiS-1" target="ghfzgxNdztTbWZ-dMRiS-2">
          <mxGeometry relative="1" as="geometry" />
        </mxCell>
        <mxCell id="ghfzgxNdztTbWZ-dMRiS-21" style="edgeStyle=orthogonalEdgeStyle;rounded=0;orthogonalLoop=1;jettySize=auto;html=1;exitX=0.5;exitY=1;exitDx=0;exitDy=0;entryX=0.5;entryY=0;entryDx=0;entryDy=0;endArrow=none;startFill=0;" edge="1" parent="1" source="ghfzgxNdztTbWZ-dMRiS-1" target="ghfzgxNdztTbWZ-dMRiS-3">
          <mxGeometry relative="1" as="geometry" />
        </mxCell>
        <mxCell id="ghfzgxNdztTbWZ-dMRiS-22" style="edgeStyle=elbowEdgeStyle;rounded=0;orthogonalLoop=1;jettySize=auto;html=1;exitX=0.5;exitY=1;exitDx=0;exitDy=0;entryX=0.5;entryY=0;entryDx=0;entryDy=0;endArrow=none;startFill=0;" edge="1" parent="1" source="ghfzgxNdztTbWZ-dMRiS-1" target="ghfzgxNdztTbWZ-dMRiS-4">
          <mxGeometry relative="1" as="geometry" />
        </mxCell>
        <mxCell id="ghfzgxNdztTbWZ-dMRiS-1" value="&lt;font style=&quot;font-size: 19px;&quot;&gt;量子仿真实验系统&lt;/font&gt;" style="rounded=0;whiteSpace=wrap;html=1;" vertex="1" parent="1">
          <mxGeometry x="270" y="10" width="310" height="40" as="geometry" />
        </mxCell>
        <mxCell id="ghfzgxNdztTbWZ-dMRiS-23" style="edgeStyle=orthogonalEdgeStyle;rounded=0;orthogonalLoop=1;jettySize=auto;html=1;exitX=0.5;exitY=1;exitDx=0;exitDy=0;entryX=0.5;entryY=0;entryDx=0;entryDy=0;endArrow=none;startFill=0;" edge="1" parent="1" source="ghfzgxNdztTbWZ-dMRiS-2" target="ghfzgxNdztTbWZ-dMRiS-8">
          <mxGeometry relative="1" as="geometry" />
        </mxCell>
        <mxCell id="ghfzgxNdztTbWZ-dMRiS-24" style="edgeStyle=orthogonalEdgeStyle;rounded=0;orthogonalLoop=1;jettySize=auto;html=1;exitX=0.5;exitY=1;exitDx=0;exitDy=0;entryX=0.5;entryY=0;entryDx=0;entryDy=0;endArrow=none;startFill=0;" edge="1" parent="1" source="ghfzgxNdztTbWZ-dMRiS-2" target="ghfzgxNdztTbWZ-dMRiS-9">
          <mxGeometry relative="1" as="geometry" />
        </mxCell>
        <mxCell id="ghfzgxNdztTbWZ-dMRiS-25" style="edgeStyle=orthogonalEdgeStyle;rounded=0;orthogonalLoop=1;jettySize=auto;html=1;exitX=0.5;exitY=1;exitDx=0;exitDy=0;entryX=0.5;entryY=0;entryDx=0;entryDy=0;endArrow=none;startFill=0;" edge="1" parent="1" source="ghfzgxNdztTbWZ-dMRiS-2" target="ghfzgxNdztTbWZ-dMRiS-10">
          <mxGeometry relative="1" as="geometry" />
        </mxCell>
        <mxCell id="ghfzgxNdztTbWZ-dMRiS-26" style="edgeStyle=orthogonalEdgeStyle;rounded=0;orthogonalLoop=1;jettySize=auto;html=1;exitX=0.5;exitY=1;exitDx=0;exitDy=0;entryX=0.5;entryY=0;entryDx=0;entryDy=0;endArrow=none;startFill=0;" edge="1" parent="1" source="ghfzgxNdztTbWZ-dMRiS-2" target="ghfzgxNdztTbWZ-dMRiS-11">
          <mxGeometry relative="1" as="geometry" />
        </mxCell>
        <mxCell id="ghfzgxNdztTbWZ-dMRiS-2" value="&lt;font style=&quot;font-size: 18px;&quot;&gt;系统管理&lt;/font&gt;" style="rounded=0;whiteSpace=wrap;html=1;" vertex="1" parent="1">
          <mxGeometry x="80" y="80" width="120" height="60" as="geometry" />
        </mxCell>
        <mxCell id="ghfzgxNdztTbWZ-dMRiS-27" style="edgeStyle=orthogonalEdgeStyle;rounded=0;orthogonalLoop=1;jettySize=auto;html=1;exitX=0.5;exitY=1;exitDx=0;exitDy=0;entryX=0.5;entryY=0;entryDx=0;entryDy=0;endArrow=none;startFill=0;" edge="1" parent="1" source="ghfzgxNdztTbWZ-dMRiS-3" target="ghfzgxNdztTbWZ-dMRiS-13">
          <mxGeometry relative="1" as="geometry" />
        </mxCell>
        <mxCell id="ghfzgxNdztTbWZ-dMRiS-28" style="edgeStyle=orthogonalEdgeStyle;rounded=0;orthogonalLoop=1;jettySize=auto;html=1;exitX=0.5;exitY=1;exitDx=0;exitDy=0;entryX=0.5;entryY=0;entryDx=0;entryDy=0;endArrow=none;startFill=0;" edge="1" parent="1" source="ghfzgxNdztTbWZ-dMRiS-3" target="ghfzgxNdztTbWZ-dMRiS-12">
          <mxGeometry relative="1" as="geometry" />
        </mxCell>
        <mxCell id="ghfzgxNdztTbWZ-dMRiS-29" style="edgeStyle=orthogonalEdgeStyle;rounded=0;orthogonalLoop=1;jettySize=auto;html=1;exitX=0.5;exitY=1;exitDx=0;exitDy=0;entryX=0.5;entryY=0;entryDx=0;entryDy=0;endArrow=none;startFill=0;" edge="1" parent="1" source="ghfzgxNdztTbWZ-dMRiS-3" target="ghfzgxNdztTbWZ-dMRiS-14">
          <mxGeometry relative="1" as="geometry" />
        </mxCell>
        <mxCell id="ghfzgxNdztTbWZ-dMRiS-30" style="edgeStyle=orthogonalEdgeStyle;rounded=0;orthogonalLoop=1;jettySize=auto;html=1;exitX=0.5;exitY=1;exitDx=0;exitDy=0;entryX=0.5;entryY=0;entryDx=0;entryDy=0;endArrow=none;startFill=0;" edge="1" parent="1" source="ghfzgxNdztTbWZ-dMRiS-3" target="ghfzgxNdztTbWZ-dMRiS-15">
          <mxGeometry relative="1" as="geometry" />
        </mxCell>
        <mxCell id="ghfzgxNdztTbWZ-dMRiS-3" value="&lt;span style=&quot;font-size: 18px;&quot;&gt;算法模拟&lt;/span&gt;" style="rounded=0;whiteSpace=wrap;html=1;" vertex="1" parent="1">
          <mxGeometry x="354" y="80" width="120" height="60" as="geometry" />
        </mxCell>
        <mxCell id="ghfzgxNdztTbWZ-dMRiS-31" style="edgeStyle=orthogonalEdgeStyle;rounded=0;orthogonalLoop=1;jettySize=auto;html=1;exitX=0.5;exitY=1;exitDx=0;exitDy=0;entryX=0.5;entryY=0;entryDx=0;entryDy=0;endArrow=none;startFill=0;" edge="1" parent="1" source="ghfzgxNdztTbWZ-dMRiS-4" target="ghfzgxNdztTbWZ-dMRiS-16">
          <mxGeometry relative="1" as="geometry" />
        </mxCell>
        <mxCell id="ghfzgxNdztTbWZ-dMRiS-32" style="edgeStyle=orthogonalEdgeStyle;rounded=0;orthogonalLoop=1;jettySize=auto;html=1;exitX=0.5;exitY=1;exitDx=0;exitDy=0;entryX=0.5;entryY=0;entryDx=0;entryDy=0;endArrow=none;startFill=0;" edge="1" parent="1" source="ghfzgxNdztTbWZ-dMRiS-4" target="ghfzgxNdztTbWZ-dMRiS-17">
          <mxGeometry relative="1" as="geometry" />
        </mxCell>
        <mxCell id="ghfzgxNdztTbWZ-dMRiS-34" style="edgeStyle=orthogonalEdgeStyle;rounded=0;orthogonalLoop=1;jettySize=auto;html=1;exitX=0.5;exitY=1;exitDx=0;exitDy=0;entryX=0.5;entryY=0;entryDx=0;entryDy=0;endArrow=none;startFill=0;" edge="1" parent="1" source="ghfzgxNdztTbWZ-dMRiS-4" target="ghfzgxNdztTbWZ-dMRiS-18">
          <mxGeometry relative="1" as="geometry" />
        </mxCell>
        <mxCell id="ghfzgxNdztTbWZ-dMRiS-35" style="edgeStyle=orthogonalEdgeStyle;rounded=0;orthogonalLoop=1;jettySize=auto;html=1;exitX=0.5;exitY=1;exitDx=0;exitDy=0;entryX=0.5;entryY=0;entryDx=0;entryDy=0;endArrow=none;startFill=0;" edge="1" parent="1" source="ghfzgxNdztTbWZ-dMRiS-4" target="ghfzgxNdztTbWZ-dMRiS-19">
          <mxGeometry relative="1" as="geometry" />
        </mxCell>
        <mxCell id="ghfzgxNdztTbWZ-dMRiS-4" value="&lt;span style=&quot;font-size: 18px;&quot;&gt;量子模拟&lt;/span&gt;" style="rounded=0;whiteSpace=wrap;html=1;" vertex="1" parent="1">
          <mxGeometry x="610" y="80" width="120" height="60" as="geometry" />
        </mxCell>
        <mxCell id="ghfzgxNdztTbWZ-dMRiS-8" value="&lt;font style=&quot;font-size: 19px;&quot;&gt;用&lt;/font&gt;&lt;div&gt;&lt;font style=&quot;font-size: 19px;&quot;&gt;户&lt;/font&gt;&lt;/div&gt;&lt;div&gt;&lt;font style=&quot;font-size: 19px;&quot;&gt;管&lt;/font&gt;&lt;/div&gt;&lt;div&gt;&lt;font style=&quot;font-size: 19px;&quot;&gt;理&lt;/font&gt;&lt;/div&gt;" style="rounded=0;whiteSpace=wrap;html=1;" vertex="1" parent="1">
          <mxGeometry x="50" y="220" width="30" height="160" as="geometry" />
        </mxCell>
        <mxCell id="ghfzgxNdztTbWZ-dMRiS-9" value="&lt;span style=&quot;font-size: 19px;&quot;&gt;菜单管理&lt;/span&gt;" style="rounded=0;whiteSpace=wrap;html=1;" vertex="1" parent="1">
          <mxGeometry x="100" y="220" width="30" height="160" as="geometry" />
        </mxCell>
        <mxCell id="ghfzgxNdztTbWZ-dMRiS-10" value="&lt;span style=&quot;font-size: 19px;&quot;&gt;联动管理&lt;/span&gt;" style="rounded=0;whiteSpace=wrap;html=1;" vertex="1" parent="1">
          <mxGeometry x="150" y="220" width="30" height="160" as="geometry" />
        </mxCell>
        <mxCell id="ghfzgxNdztTbWZ-dMRiS-11" value="&lt;span style=&quot;font-size: 19px;&quot;&gt;角色管理&lt;/span&gt;" style="rounded=0;whiteSpace=wrap;html=1;" vertex="1" parent="1">
          <mxGeometry x="200" y="220" width="30" height="160" as="geometry" />
        </mxCell>
        <mxCell id="ghfzgxNdztTbWZ-dMRiS-12" value="&lt;span style=&quot;font-size: 19px;&quot;&gt;Feistel&lt;/span&gt;&lt;div&gt;&lt;span style=&quot;font-size: 19px;&quot;&gt;加&lt;/span&gt;&lt;/div&gt;&lt;div&gt;&lt;span style=&quot;font-size: 19px;&quot;&gt;解&lt;/span&gt;&lt;/div&gt;&lt;div&gt;&lt;span style=&quot;font-size: 19px;&quot;&gt;密&lt;/span&gt;&lt;/div&gt;&lt;div&gt;&lt;span style=&quot;font-size: 19px;&quot;&gt;模&lt;/span&gt;&lt;/div&gt;&lt;div&gt;&lt;span style=&quot;font-size: 19px;&quot;&gt;拟&lt;/span&gt;&lt;/div&gt;" style="rounded=0;whiteSpace=wrap;html=1;" vertex="1" parent="1">
          <mxGeometry x="340" y="220" width="60" height="160" as="geometry" />
        </mxCell>
        <mxCell id="ghfzgxNdztTbWZ-dMRiS-13" value="&lt;span style=&quot;font-size: 19px;&quot;&gt;量子区分模拟&lt;/span&gt;" style="rounded=0;whiteSpace=wrap;html=1;" vertex="1" parent="1">
          <mxGeometry x="290" y="220" width="30" height="160" as="geometry" />
        </mxCell>
        <mxCell id="ghfzgxNdztTbWZ-dMRiS-14" value="&lt;span style=&quot;font-size: 19px;&quot;&gt;Simon算&lt;/span&gt;&lt;div&gt;&lt;span style=&quot;font-size: 19px;&quot;&gt;法&lt;/span&gt;&lt;/div&gt;&lt;div&gt;&lt;span style=&quot;font-size: 19px;&quot;&gt;模&lt;/span&gt;&lt;/div&gt;&lt;div&gt;&lt;span style=&quot;font-size: 19px;&quot;&gt;拟&lt;/span&gt;&lt;/div&gt;" style="rounded=0;whiteSpace=wrap;html=1;" vertex="1" parent="1">
          <mxGeometry x="414" y="220" width="51" height="160" as="geometry" />
        </mxCell>
        <mxCell id="ghfzgxNdztTbWZ-dMRiS-15" value="&lt;span style=&quot;font-size: 19px;&quot;&gt;量子电路模拟&lt;/span&gt;" style="rounded=0;whiteSpace=wrap;html=1;" vertex="1" parent="1">
          <mxGeometry x="490" y="220" width="30" height="160" as="geometry" />
        </mxCell>
        <mxCell id="ghfzgxNdztTbWZ-dMRiS-16" value="&lt;font style=&quot;font-size: 13px;&quot;&gt;查&lt;/font&gt;&lt;div&gt;&lt;font style=&quot;font-size: 13px;&quot;&gt;看&lt;/font&gt;&lt;/div&gt;&lt;div&gt;&lt;font style=&quot;font-size: 13px;&quot;&gt;量&lt;/font&gt;&lt;/div&gt;&lt;div&gt;&lt;font style=&quot;font-size: 13px;&quot;&gt;子&lt;/font&gt;&lt;/div&gt;&lt;div&gt;&lt;font style=&quot;font-size: 13px;&quot;&gt;力&lt;/font&gt;&lt;/div&gt;&lt;div&gt;&lt;font style=&quot;font-size: 13px;&quot;&gt;学&lt;/font&gt;&lt;/div&gt;&lt;div&gt;&lt;font style=&quot;font-size: 13px;&quot;&gt;相&lt;/font&gt;&lt;/div&gt;&lt;div&gt;&lt;font style=&quot;font-size: 13px;&quot;&gt;关&lt;/font&gt;&lt;/div&gt;&lt;div&gt;&lt;font style=&quot;font-size: 13px;&quot;&gt;模&lt;/font&gt;&lt;/div&gt;&lt;div&gt;&lt;font style=&quot;font-size: 13px;&quot;&gt;拟&lt;/font&gt;&lt;/div&gt;" style="rounded=0;whiteSpace=wrap;html=1;" vertex="1" parent="1">
          <mxGeometry x="600" y="220" width="30" height="160" as="geometry" />
        </mxCell>
        <mxCell id="ghfzgxNdztTbWZ-dMRiS-17" value="&lt;font style=&quot;font-size: 15px;&quot;&gt;查看量子比特模拟&lt;/font&gt;" style="rounded=0;whiteSpace=wrap;html=1;" vertex="1" parent="1">
          <mxGeometry x="640" y="220" width="30" height="160" as="geometry" />
        </mxCell>
        <mxCell id="ghfzgxNdztTbWZ-dMRiS-18" value="&lt;font style=&quot;font-size: 14px;&quot;&gt;查&lt;/font&gt;&lt;div&gt;&lt;font style=&quot;font-size: 14px;&quot;&gt;看&lt;/font&gt;&lt;/div&gt;&lt;div&gt;&lt;font style=&quot;font-size: 14px;&quot;&gt;量&lt;/font&gt;&lt;/div&gt;&lt;div&gt;&lt;font style=&quot;font-size: 14px;&quot;&gt;子&lt;/font&gt;&lt;/div&gt;&lt;div&gt;&lt;span style=&quot;font-size: 14px;&quot;&gt;相&lt;/span&gt;&lt;/div&gt;&lt;div&gt;&lt;span style=&quot;font-size: 14px;&quot;&gt;关&lt;/span&gt;&lt;/div&gt;&lt;div&gt;&lt;font style=&quot;font-size: 14px;&quot;&gt;的&lt;/font&gt;&lt;/div&gt;&lt;div&gt;&lt;font style=&quot;font-size: 14px;&quot;&gt;模&lt;/font&gt;&lt;/div&gt;&lt;div&gt;&lt;font style=&quot;font-size: 14px;&quot;&gt;拟&lt;/font&gt;&lt;/div&gt;" style="rounded=0;whiteSpace=wrap;html=1;" vertex="1" parent="1">
          <mxGeometry x="680" y="220" width="30" height="160" as="geometry" />
        </mxCell>
        <mxCell id="ghfzgxNdztTbWZ-dMRiS-19" value="&lt;font style=&quot;font-size: 14px;&quot;&gt;查&lt;/font&gt;&lt;div&gt;&lt;font style=&quot;font-size: 14px;&quot;&gt;看&lt;/font&gt;&lt;/div&gt;&lt;div&gt;&lt;font style=&quot;font-size: 14px;&quot;&gt;量&lt;/font&gt;&lt;/div&gt;&lt;div&gt;&lt;font style=&quot;font-size: 14px;&quot;&gt;子&lt;/font&gt;&lt;/div&gt;&lt;div&gt;&lt;font style=&quot;font-size: 14px;&quot;&gt;测&lt;/font&gt;&lt;/div&gt;&lt;div&gt;&lt;font style=&quot;font-size: 14px;&quot;&gt;量&lt;/font&gt;&lt;/div&gt;&lt;div&gt;&lt;font style=&quot;font-size: 14px;&quot;&gt;的&lt;/font&gt;&lt;/div&gt;&lt;div&gt;&lt;font style=&quot;font-size: 14px;&quot;&gt;模&lt;/font&gt;&lt;/div&gt;&lt;div&gt;&lt;font style=&quot;font-size: 14px;&quot;&gt;拟&lt;/font&gt;&lt;/div&gt;" style="rounded=0;whiteSpace=wrap;html=1;" vertex="1" parent="1">
          <mxGeometry x="720" y="220" width="30" height="160" as="geometry" />
        </mxCell>
      </root>
    </mxGraphModel>
  </diagram>
</mxfile>
